<svg width="122" height="227" viewBox="0 0 122 227" fill="none" xmlns="http://www.w3.org/2000/svg">
<rect width="122" height="227" rx="20" fill="#EDEDED"/>
<path d="M77.8534 127.391C78.0896 126.561 78.9539 126.079 79.7839 126.315C80.6139 126.552 81.0953 127.416 80.8591 128.246C80.0997 130.915 77.9783 133.007 75.2372 133.692L49.8388 140.041C45.5454 141.033 41.3339 138.438 40.3588 134.212L33.795 105.769C32.8372 101.619 35.3804 97.4662 39.5126 96.4331L45.4158 94.9573C46.253 94.748 47.1013 95.257 47.3106 96.0942C47.5199 96.9314 47.0109 97.7797 46.1737 97.989L40.2705 99.4648C37.7912 100.085 36.2653 102.576 36.8399 105.066L43.4037 133.509C43.9888 136.045 46.5155 137.602 49.1081 137.003L74.4793 130.66C76.1251 130.249 77.397 128.994 77.8534 127.391ZM85.4999 117.54V93.1875C85.4999 90.5987 83.4012 88.5 80.8124 88.5H52.6874C50.0986 88.5 47.9999 90.5987 47.9999 93.1875V111.29L54.7075 104.583C55.3177 103.972 56.3071 103.972 56.9173 104.583L68.5115 116.177L76.8207 110.637C77.4404 110.224 78.2656 110.306 78.7923 110.833L85.4999 117.54ZM85.4608 121.921L77.4883 113.948L69.1791 119.488C68.5594 119.901 67.7342 119.819 67.2075 119.292L55.8124 107.897L47.9999 115.71V121.312C47.9999 123.901 50.0986 126 52.6874 126H80.8124C83.1951 126 85.1627 124.222 85.4608 121.921ZM52.6874 85.375H80.8124C85.1271 85.375 88.6249 88.8728 88.6249 93.1875V121.312C88.6249 125.627 85.1271 129.125 80.8124 129.125H52.6874C48.3727 129.125 44.8749 125.627 44.8749 121.312V93.1875C44.8749 88.8728 48.3727 85.375 52.6874 85.375ZM72.9999 91.625H79.2499C80.9758 91.625 82.3749 93.0241 82.3749 94.75V101C82.3749 102.726 80.9758 104.125 79.2499 104.125H72.9999C71.274 104.125 69.8749 102.726 69.8749 101V94.75C69.8749 93.0241 71.274 91.625 72.9999 91.625ZM72.9999 94.75V101H79.2499V94.75H72.9999Z" fill="#DADADA"/>
</svg>
