<svg width="19" height="25" viewBox="0 0 19 25" fill="none" xmlns="http://www.w3.org/2000/svg">
<path d="M18.1081 7.05996C17.2471 2.89222 13.7012 0 9.53347 0C8.94674 0 8.36318 0.0701478 7.77646 0.172181C5.46776 0.618608 3.50669 1.92922 2.1961 3.8903C0.888708 5.8546 0.404018 8.19514 0.888708 10.5357C1.19803 12.0855 1.81982 13.5332 2.40339 14.7385C3.5386 17.1493 5.02137 19.595 7.05263 22.4872C7.49905 23.1059 7.94867 23.7277 8.43017 24.3463C8.43017 24.3463 8.43017 24.3463 8.43017 24.3814L8.5322 24.5185L8.56728 24.5535C8.80964 24.8629 9.154 25 9.49839 25C9.74075 25 10.1521 24.8979 10.5315 24.4483C11.9091 22.6562 13.0794 20.9024 14.1827 19.1454C15.4231 17.1492 16.9378 14.4962 17.8689 11.5338C18.3472 10.0191 18.4174 8.50446 18.1081 7.05996ZM16.6253 11.1575C15.7293 13.9828 14.2497 16.5306 13.0794 18.4598C12.0112 20.1817 10.8409 21.8686 9.5335 23.6256C9.5335 23.6256 9.5335 23.6607 9.49842 23.6607L9.46335 23.5905C9.46335 23.5905 9.46335 23.5555 9.42828 23.5555C8.98185 22.9369 8.53223 22.315 8.08581 21.6964C6.08962 18.8712 4.64193 16.4955 3.5386 14.155C2.98696 13.0197 2.40339 11.6741 2.12599 10.2296C1.71145 8.23341 2.12599 6.19896 3.22932 4.5472C4.33264 2.89545 6.05458 1.75701 8.01566 1.37757C8.53223 1.27554 9.01373 1.24047 9.53034 1.24047C13.1114 1.24047 16.1088 3.72134 16.8645 7.30232C17.1419 8.53954 17.0399 9.84693 16.6253 11.1575ZM9.42824 4.61416C7.18973 4.61416 5.36573 6.43813 5.36573 8.67667C5.36573 10.9152 7.1897 12.7392 9.42824 12.7392C11.6668 12.7392 13.4908 10.9152 13.4908 8.67667C13.4908 6.43813 11.6668 4.61416 9.42824 4.61416ZM9.42824 11.4668C7.87849 11.4668 6.63805 10.2264 6.63805 8.67664C6.63805 7.12689 7.87849 5.88645 9.42824 5.88645C10.978 5.88645 12.2184 7.12689 12.2184 8.67664C12.2184 10.2264 10.978 11.4668 9.42824 11.4668Z" fill="#363636"/>
</svg>
