<svg width="25" height="25" viewBox="0 0 25 25" fill="none" xmlns="http://www.w3.org/2000/svg">
<path d="M21.1082 7.05996C20.2472 2.89222 16.7013 0 12.5335 0C11.9468 0 11.3633 0.0701478 10.7765 0.172181C8.46784 0.618608 6.50676 1.92922 5.19618 3.8903C3.88878 5.8546 3.40409 8.19514 3.88878 10.5357C4.1981 12.0855 4.8199 13.5332 5.40347 14.7385C6.53868 17.1493 8.02144 19.595 10.0527 22.4872C10.4991 23.1059 10.9487 23.7277 11.4302 24.3463C11.4302 24.3463 11.4302 24.3463 11.4302 24.3814L11.5323 24.5185L11.5674 24.5535C11.8097 24.8629 12.1541 25 12.4985 25C12.7408 25 13.1522 24.8979 13.5316 24.4483C14.9092 22.6562 16.0795 20.9024 17.1828 19.1454C18.4232 17.1492 19.9379 14.4962 20.869 11.5338C21.3473 10.0191 21.4175 8.50446 21.1082 7.05996ZM19.6254 11.1575C18.7293 13.9828 17.2497 16.5306 16.0795 18.4598C15.0112 20.1817 13.841 21.8686 12.5336 23.6256C12.5336 23.6256 12.5336 23.6607 12.4985 23.6607L12.4634 23.5905C12.4634 23.5905 12.4634 23.5555 12.4284 23.5555C11.9819 22.9369 11.5323 22.315 11.0859 21.6964C9.0897 18.8712 7.64201 16.4955 6.53868 14.155C5.98703 13.0197 5.40347 11.6741 5.12606 10.2296C4.71152 8.23341 5.12606 6.19896 6.22939 4.5472C7.33272 2.89545 9.05466 1.75701 11.0157 1.37757C11.5323 1.27554 12.0138 1.24047 12.5304 1.24047C16.1114 1.24047 19.1089 3.72134 19.8646 7.30232C20.142 8.53954 20.0399 9.84693 19.6254 11.1575ZM12.4283 4.61416C10.1898 4.61416 8.36581 6.43813 8.36581 8.67667C8.36581 10.9152 10.1898 12.7392 12.4283 12.7392C14.6669 12.7392 16.4908 10.9152 16.4908 8.67667C16.4908 6.43813 14.6668 4.61416 12.4283 4.61416ZM12.4283 11.4668C10.8786 11.4668 9.63813 10.2264 9.63813 8.67664C9.63813 7.12689 10.8786 5.88645 12.4283 5.88645C13.9781 5.88645 15.2185 7.12689 15.2185 8.67664C15.2185 10.2264 13.978 11.4668 12.4283 11.4668Z" fill="white"/>
</svg>
