<svg width="26" height="26" viewBox="0 0 26 26" fill="none" xmlns="http://www.w3.org/2000/svg">
<path d="M-5.69225e-07 13.0224C-5.77841e-05 12.894 0.0251249 12.7669 0.0741114 12.6483C0.123096 12.5297 0.194927 12.4219 0.285497 12.3311L12.3101 0.286112C12.4931 0.102914 12.7411 -5.79564e-07 12.9998 -5.68257e-07C13.2585 -5.5695e-07 13.5065 0.102914 13.6895 0.286112L25.7141 12.3311C25.8047 12.4219 25.8766 12.5296 25.9256 12.6481C25.9747 12.7667 26 12.8938 26 13.0221C26 13.1505 25.9748 13.2775 25.9258 13.3961C25.8768 13.5147 25.805 13.6225 25.7144 13.7132C25.6239 13.804 25.5163 13.876 25.398 13.9252C25.2796 13.9743 25.1528 13.9996 25.0246 13.9996C24.8965 13.9997 24.7697 13.9744 24.6513 13.9253C24.5329 13.8763 24.4254 13.8043 24.3347 13.7136L13.0001 2.35909L1.6655 13.7136C1.52907 13.8503 1.35521 13.9435 1.16593 13.9812C0.976642 14.0189 0.780433 13.9996 0.60213 13.9256C0.423826 13.8516 0.271442 13.7263 0.16426 13.5655C0.0570768 13.4047 -8.83157e-05 13.2157 -5.69225e-07 13.0224Z" fill="white"/>
<path d="M-5.69225e-07 25.0224C-5.77841e-05 24.894 0.0251249 24.7669 0.0741114 24.6483C0.123096 24.5297 0.194927 24.4219 0.285497 24.3311L12.3101 12.2861C12.4931 12.1029 12.7411 12 12.9998 12C13.2585 12 13.5065 12.1029 13.6895 12.2861L25.7141 24.3311C25.8047 24.4219 25.8766 24.5296 25.9256 24.6481C25.9747 24.7667 26 24.8938 26 25.0221C26 25.1505 25.9748 25.2775 25.9258 25.3961C25.8768 25.5147 25.805 25.6225 25.7144 25.7132C25.6239 25.804 25.5163 25.876 25.398 25.9252C25.2796 25.9743 25.1528 25.9996 25.0246 25.9996C24.8965 25.9997 24.7697 25.9744 24.6513 25.9253C24.5329 25.8763 24.4254 25.8043 24.3347 25.7136L13.0001 14.3591L1.6655 25.7136C1.52907 25.8503 1.35521 25.9435 1.16593 25.9812C0.976642 26.0189 0.780433 25.9996 0.60213 25.9256C0.423826 25.8516 0.271442 25.7263 0.16426 25.5655C0.0570768 25.4047 -8.83157e-05 25.2157 -5.69225e-07 25.0224Z" fill="white" fill-opacity="0.5"/>
</svg>
