<svg width="32" height="29" viewBox="0 0 32 29" fill="none" xmlns="http://www.w3.org/2000/svg">
<path d="M1.23735 29C1.07545 29.0008 0.914952 28.9727 0.765065 28.9172C0.615177 28.8617 0.478849 28.7799 0.363897 28.6766C0.248591 28.5729 0.157069 28.4496 0.0946125 28.3137C0.0321558 28.1778 0 28.032 0 27.8848C0 27.7376 0.0321558 27.5918 0.0946125 27.4559C0.157069 27.32 0.248591 27.1966 0.363897 27.093L29.8892 0.327974C30.1209 0.117976 30.4351 0 30.7627 0C31.0903 0 31.4045 0.117976 31.6361 0.327974C31.8678 0.537971 31.9979 0.82279 31.9979 1.11977C31.9979 1.41675 31.8678 1.70157 31.6361 1.91157L2.11081 28.6766C1.99586 28.7799 1.85953 28.8617 1.70964 28.9172C1.55976 28.9727 1.39926 29.0008 1.23735 29Z" fill="#363636"/>
<path d="M30.763 29C30.6011 29.0008 30.4406 28.9727 30.2907 28.9172C30.1408 28.8617 30.0045 28.7799 29.8896 28.6766L0.364239 1.91157C0.132584 1.70157 0.0024414 1.41675 0.00244141 1.11977C0.00244141 0.822789 0.132584 0.537971 0.364239 0.327973C0.595894 0.117975 0.910086 2.21269e-09 1.2377 0C1.56531 -2.21269e-09 1.8795 0.117975 2.11115 0.327973L31.6365 27.093C31.7518 27.1966 31.8433 27.32 31.9058 27.4559C31.9682 27.5918 32.0004 27.7376 32.0004 27.8848C32.0004 28.032 31.9682 28.1778 31.9058 28.3137C31.8433 28.4496 31.7518 28.5729 31.6365 28.6766C31.5215 28.7799 31.3852 28.8617 31.2353 28.9172C31.0854 28.9727 30.9249 29.0008 30.763 29Z" fill="#363636"/>
</svg>
