<svg width="25" height="25" viewBox="0 0 25 25" fill="none" xmlns="http://www.w3.org/2000/svg">
<g clip-path="url(#clip0_318_1870)">
<path d="M21.875 7.03125H8.59375C8.38655 7.03125 8.18784 6.94894 8.04132 6.80243C7.89481 6.65591 7.8125 6.4572 7.8125 6.25C7.8125 6.0428 7.89481 5.84409 8.04132 5.69757C8.18784 5.55106 8.38655 5.46875 8.59375 5.46875H21.875C22.0822 5.46875 22.2809 5.55106 22.4274 5.69757C22.5739 5.84409 22.6562 6.0428 22.6562 6.25C22.6562 6.4572 22.5739 6.65591 22.4274 6.80243C22.2809 6.94894 22.0822 7.03125 21.875 7.03125Z" fill="white"/>
<path d="M5.46875 7.03125H3.125C2.9178 7.03125 2.71909 6.94894 2.57257 6.80243C2.42606 6.65591 2.34375 6.4572 2.34375 6.25C2.34375 6.0428 2.42606 5.84409 2.57257 5.69757C2.71909 5.55106 2.9178 5.46875 3.125 5.46875H5.46875C5.67595 5.46875 5.87466 5.55106 6.02118 5.69757C6.16769 5.84409 6.25 6.0428 6.25 6.25C6.25 6.4572 6.16769 6.65591 6.02118 6.80243C5.87466 6.94894 5.67595 7.03125 5.46875 7.03125Z" fill="white"/>
<path d="M16.4062 13.2812H3.125C2.9178 13.2812 2.71909 13.1989 2.57257 13.0524C2.42606 12.9059 2.34375 12.7072 2.34375 12.5C2.34375 12.2928 2.42606 12.0941 2.57257 11.9476C2.71909 11.8011 2.9178 11.7188 3.125 11.7188H16.4062C16.6135 11.7188 16.8122 11.8011 16.9587 11.9476C17.1052 12.0941 17.1875 12.2928 17.1875 12.5C17.1875 12.7072 17.1052 12.9059 16.9587 13.0524C16.8122 13.1989 16.6135 13.2812 16.4062 13.2812Z" fill="white"/>
<path d="M8.59375 19.5312H3.125C2.9178 19.5312 2.71909 19.4489 2.57257 19.3024C2.42606 19.1559 2.34375 18.9572 2.34375 18.75C2.34375 18.5428 2.42606 18.3441 2.57257 18.1976C2.71909 18.0511 2.9178 17.9688 3.125 17.9688H8.59375C8.80095 17.9688 8.99966 18.0511 9.14618 18.1976C9.29269 18.3441 9.375 18.5428 9.375 18.75C9.375 18.9572 9.29269 19.1559 9.14618 19.3024C8.99966 19.4489 8.80095 19.5312 8.59375 19.5312Z" fill="white"/>
<path d="M7.03125 8.59375C6.5677 8.59375 6.11456 8.45629 5.72913 8.19876C5.34371 7.94122 5.0433 7.57518 4.86591 7.14692C4.68852 6.71865 4.6421 6.2474 4.73254 5.79276C4.82297 5.33812 5.04619 4.9205 5.37397 4.59272C5.70175 4.26494 6.11937 4.04172 6.57401 3.95129C7.02865 3.86085 7.4999 3.90727 7.92817 4.08466C8.35643 4.26205 8.72247 4.56246 8.98001 4.94788C9.23754 5.33331 9.375 5.78645 9.375 6.25C9.375 6.8716 9.12807 7.46774 8.68853 7.90728C8.24899 8.34682 7.65285 8.59375 7.03125 8.59375ZM7.03125 5.46875C6.87673 5.46875 6.72569 5.51457 6.59721 5.60042C6.46874 5.68626 6.3686 5.80827 6.30947 5.95103C6.25034 6.09378 6.23487 6.25087 6.26501 6.40242C6.29516 6.55396 6.36956 6.69317 6.47882 6.80243C6.58808 6.91169 6.72729 6.98609 6.87884 7.01624C7.03038 7.04638 7.18747 7.03091 7.33022 6.97178C7.47298 6.91265 7.59499 6.81252 7.68084 6.68404C7.76668 6.55556 7.8125 6.40452 7.8125 6.25C7.8125 6.0428 7.73019 5.84409 7.58368 5.69757C7.43717 5.55106 7.23845 5.46875 7.03125 5.46875Z" fill="white"/>
<path d="M17.9688 14.8438C17.5052 14.8438 17.0521 14.7063 16.6666 14.4488C16.2812 14.1912 15.9808 13.8252 15.8034 13.3969C15.626 12.9687 15.5796 12.4974 15.67 12.0428C15.7605 11.5881 15.9837 11.1705 16.3115 10.8427C16.6392 10.5149 17.0569 10.2917 17.5115 10.2013C17.9662 10.1109 18.4374 10.1573 18.8657 10.3347C19.2939 10.5121 19.66 10.8125 19.9175 11.1979C20.175 11.5833 20.3125 12.0365 20.3125 12.5C20.3125 13.1216 20.0656 13.7177 19.626 14.1573C19.1865 14.5968 18.5904 14.8438 17.9688 14.8438ZM17.9688 11.7188C17.8142 11.7188 17.6632 11.7646 17.5347 11.8504C17.4062 11.9363 17.3061 12.0583 17.247 12.201C17.1878 12.3438 17.1724 12.5009 17.2025 12.6524C17.2327 12.804 17.3071 12.9432 17.4163 13.0524C17.5256 13.1617 17.6648 13.2361 17.8163 13.2662C17.9679 13.2964 18.125 13.2809 18.2677 13.2218C18.4105 13.1627 18.5325 13.0625 18.6183 12.934C18.7042 12.8056 18.75 12.6545 18.75 12.5C18.75 12.2928 18.6677 12.0941 18.5212 11.9476C18.3747 11.8011 18.176 11.7188 17.9688 11.7188Z" fill="white"/>
<path d="M10.1563 21.0938C9.6927 21.0938 9.23956 20.9563 8.85413 20.6988C8.46871 20.4412 8.1683 20.0752 7.99091 19.6469C7.81352 19.2187 7.7671 18.7474 7.85754 18.2928C7.94797 17.8381 8.17119 17.4205 8.49897 17.0927C8.82675 16.7649 9.24437 16.5417 9.69901 16.4513C10.1537 16.3609 10.6249 16.4073 11.0532 16.5847C11.4814 16.7621 11.8475 17.0625 12.105 17.4479C12.3625 17.8333 12.5 18.2865 12.5 18.75C12.5 19.3716 12.2531 19.9677 11.8135 20.4073C11.374 20.8468 10.7779 21.0938 10.1563 21.0938ZM10.1563 17.9688C10.0017 17.9688 9.85069 18.0146 9.72221 18.1004C9.59374 18.1863 9.4936 18.3083 9.43447 18.451C9.37534 18.5938 9.35987 18.7509 9.39001 18.9024C9.42016 19.054 9.49456 19.1932 9.60382 19.3024C9.71308 19.4117 9.85229 19.4861 10.0038 19.5162C10.1554 19.5464 10.3125 19.5309 10.4552 19.4718C10.598 19.4127 10.72 19.3125 10.8058 19.184C10.8917 19.0556 10.9375 18.9045 10.9375 18.75C10.9375 18.5428 10.8552 18.3441 10.7087 18.1976C10.5622 18.0511 10.3635 17.9688 10.1563 17.9688Z" fill="white"/>
<path d="M21.875 13.2812H19.5312C19.324 13.2812 19.1253 13.1989 18.9788 13.0524C18.8323 12.9059 18.75 12.7072 18.75 12.5C18.75 12.2928 18.8323 12.0941 18.9788 11.9476C19.1253 11.8011 19.324 11.7188 19.5312 11.7188H21.875C22.0822 11.7188 22.2809 11.8011 22.4274 11.9476C22.5739 12.0941 22.6562 12.2928 22.6562 12.5C22.6562 12.7072 22.5739 12.9059 22.4274 13.0524C22.2809 13.1989 22.0822 13.2812 21.875 13.2812Z" fill="white"/>
<path d="M21.875 19.5312H11.7188C11.5115 19.5312 11.3128 19.4489 11.1663 19.3024C11.0198 19.1559 10.9375 18.9572 10.9375 18.75C10.9375 18.5428 11.0198 18.3441 11.1663 18.1976C11.3128 18.0511 11.5115 17.9688 11.7188 17.9688H21.875C22.0822 17.9688 22.2809 18.0511 22.4274 18.1976C22.5739 18.3441 22.6562 18.5428 22.6562 18.75C22.6562 18.9572 22.5739 19.1559 22.4274 19.3024C22.2809 19.4489 22.0822 19.5312 21.875 19.5312Z" fill="white"/>
</g>
<defs>
<clipPath id="clip0_318_1870">
<rect width="25" height="25" fill="white"/>
</clipPath>
</defs>
</svg>
