<svg width="25" height="24" viewBox="0 0 25 24" fill="none" xmlns="http://www.w3.org/2000/svg">
<path d="M20.1247 5.62124C20.1247 5.80018 20.0878 5.97738 20.0162 6.14269C19.9446 6.30802 19.8394 6.45823 19.7071 6.58477C19.5747 6.71131 19.4174 6.81166 19.2443 6.88015C19.0714 6.94863 18.886 6.98388 18.6987 6.98388C18.5115 6.98388 18.3261 6.94863 18.153 6.88015C17.98 6.81166 17.8228 6.71131 17.6904 6.58477C17.5579 6.45823 17.4529 6.30802 17.3813 6.14269C17.3095 5.97738 17.2727 5.80018 17.2727 5.62124C17.2727 5.25985 17.4229 4.91326 17.6904 4.65771C17.9579 4.40217 18.3205 4.25861 18.6987 4.25861C19.077 4.25861 19.4396 4.40217 19.7071 4.65771C19.9744 4.91326 20.1247 5.25985 20.1247 5.62124ZM24.6523 11.7722V11.7899L24.5706 16.7284C24.5499 18.5093 23.8002 20.2119 22.4823 21.4714C21.1645 22.731 19.3829 23.4476 17.5191 23.468L12.3325 23.5445H12.314L7.14585 23.4665C5.28197 23.4466 3.50029 22.7303 2.18212 21.4711C0.863936 20.2118 0.113987 18.5093 0.0927738 16.7284L0.0126953 11.7722V11.7546L0.0943137 6.81612C0.115119 5.03509 0.864675 3.33259 2.18257 2.073C3.50046 0.813405 5.28197 0.0967853 7.14585 0.0765223L12.3325 0H12.3509L17.5191 0.0779939C19.3829 0.0978743 21.1647 0.814111 22.4827 2.07343C23.801 3.33275 24.5509 5.03509 24.5722 6.81612L24.6523 11.7722ZM22.3577 11.7722L22.2776 6.84997C22.2632 5.63931 21.7534 4.48213 20.8576 3.62601C19.9617 2.7699 18.7506 2.28286 17.4837 2.2691L12.3325 2.19258L7.18126 2.2691C5.9143 2.28286 4.7033 2.7699 3.80736 3.62601C2.91143 4.48213 2.40173 5.63931 2.38734 6.84997L2.30726 11.7722L2.38734 16.6945C2.40173 17.9051 2.91143 19.0623 3.80736 19.9185C4.7033 20.7746 5.9143 21.2615 7.18126 21.2754L12.3325 21.3519L17.4837 21.2754C18.7506 21.2615 19.9617 20.7746 20.8576 19.9185C21.7534 19.0623 22.2632 17.9051 22.2776 16.6945L22.3577 11.7722ZM18.6587 11.7722C18.6587 13.3755 17.9922 14.9131 16.8058 16.0467C15.6194 17.1804 14.0103 17.8173 12.3325 17.8173C10.6547 17.8173 9.04555 17.1804 7.85916 16.0467C6.67277 14.9131 6.00627 13.3755 6.00627 11.7722C6.00627 10.169 6.67277 8.6314 7.85916 7.49773C9.04555 6.36407 10.6547 5.72719 12.3325 5.72719C14.0103 5.72719 15.6194 6.36407 16.8058 7.49773C17.9922 8.6314 18.6587 10.169 18.6587 11.7722ZM16.3641 11.7722C16.3641 10.7505 15.9394 9.7706 15.1833 9.04812C14.4272 8.32565 13.4017 7.91977 12.3325 7.91977C11.2632 7.91977 10.2377 8.32565 9.48166 9.04812C8.72558 9.7706 8.30082 10.7505 8.30082 11.7722C8.30082 12.794 8.72558 13.7738 9.48166 14.4963C10.2377 15.2189 11.2632 15.6247 12.3325 15.6247C13.4017 15.6247 14.4272 15.2189 15.1833 14.4963C15.9394 13.7738 16.3641 12.794 16.3641 11.7722Z" fill="#363636"/>
</svg>
