<svg width="25" height="24" viewBox="0 0 25 24" fill="none" xmlns="http://www.w3.org/2000/svg">
<path d="M20.4695 5.62124C20.4695 5.80018 20.4326 5.97738 20.3611 6.14269C20.2895 6.30802 20.1845 6.45823 20.0523 6.58477C19.92 6.71131 19.7629 6.81166 19.59 6.88015C19.4173 6.94863 19.2321 6.98388 19.045 6.98388C18.8579 6.98388 18.6727 6.94863 18.4998 6.88015C18.327 6.81166 18.17 6.71131 18.0377 6.58477C17.9054 6.45823 17.8005 6.30802 17.7289 6.14269C17.6572 5.97738 17.6205 5.80018 17.6205 5.62124C17.6205 5.25985 17.7705 4.91326 18.0377 4.65771C18.3049 4.40217 18.6672 4.25861 19.045 4.25861C19.4228 4.25861 19.7851 4.40217 20.0523 4.65771C20.3194 4.91326 20.4695 5.25985 20.4695 5.62124ZM24.9923 11.7722V11.7899L24.9108 16.7284C24.89 18.5093 24.1411 20.2119 22.8246 21.4714C21.5082 22.731 19.7285 23.4476 17.8666 23.468L12.6854 23.5445H12.6669L7.50414 23.4665C5.64221 23.4466 3.86238 22.7303 2.54558 21.4711C1.22877 20.2118 0.479604 18.5093 0.458413 16.7284L0.378418 11.7722V11.7546L0.459951 6.81612C0.480735 5.03509 1.22951 3.33259 2.54603 2.073C3.86255 0.813405 5.64221 0.0967853 7.50414 0.0765223L12.6854 0H12.7038L17.8666 0.0779939C19.7285 0.0978743 21.5084 0.814111 22.8251 2.07343C24.1419 3.33275 24.8911 5.03509 24.9123 6.81612L24.9923 11.7722ZM22.7002 11.7722L22.6202 6.84997C22.6057 5.63931 22.0965 4.48213 21.2016 3.62601C20.3066 2.7699 19.0968 2.28286 17.8312 2.2691L12.6854 2.19258L7.53952 2.2691C6.27388 2.28286 5.06413 2.7699 4.16913 3.62601C3.27414 4.48213 2.76497 5.63931 2.75059 6.84997L2.67059 11.7722L2.75059 16.6945C2.76497 17.9051 3.27414 19.0623 4.16913 19.9185C5.06413 20.7746 6.27388 21.2615 7.53952 21.2754L12.6854 21.3519L17.8312 21.2754C19.0968 21.2615 20.3066 20.7746 21.2016 19.9185C22.0965 19.0623 22.6057 17.9051 22.6202 16.6945L22.7002 11.7722ZM19.005 11.7722C19.005 13.3755 18.3392 14.9131 17.154 16.0467C15.9689 17.1804 14.3614 17.8173 12.6854 17.8173C11.0093 17.8173 9.40187 17.1804 8.21671 16.0467C7.03155 14.9131 6.36575 13.3755 6.36575 11.7722C6.36575 10.169 7.03155 8.6314 8.21671 7.49773C9.40187 6.36407 11.0093 5.72719 12.6854 5.72719C14.3614 5.72719 15.9689 6.36407 17.154 7.49773C18.3392 8.6314 19.005 10.169 19.005 11.7722ZM16.7128 11.7722C16.7128 10.7505 16.2885 9.7706 15.5332 9.04812C14.7779 8.32565 13.7535 7.91977 12.6854 7.91977C11.6172 7.91977 10.5928 8.32565 9.83752 9.04812C9.08222 9.7706 8.65791 10.7505 8.65791 11.7722C8.65791 12.794 9.08222 13.7738 9.83752 14.4963C10.5928 15.2189 11.6172 15.6247 12.6854 15.6247C13.7535 15.6247 14.7779 15.2189 15.5332 14.4963C16.2885 13.7738 16.7128 12.794 16.7128 11.7722Z" fill="white"/>
</svg>
