<svg width="60" height="60" viewBox="0 0 60 60" fill="none" xmlns="http://www.w3.org/2000/svg">
<circle cx="30" cy="30" r="30" fill="#2967EC"/>
<path d="M26.6954 19.5117C26.8031 19.5117 26.9098 19.5336 27.0094 19.5763C27.1089 19.6189 27.1994 19.6815 27.2756 19.7604L37.3868 30.2332C37.5406 30.3926 37.627 30.6086 37.627 30.8339C37.627 31.0592 37.5406 31.2752 37.3868 31.4346L27.2756 41.9074C27.1994 41.9863 27.109 42.049 27.0095 42.0917C26.91 42.1344 26.8033 42.1564 26.6956 42.1564C26.5878 42.1565 26.4811 42.1345 26.3816 42.0918C26.2821 42.0492 26.1916 41.9866 26.1154 41.9077C26.0392 41.8288 25.9788 41.7352 25.9375 41.6321C25.8963 41.529 25.875 41.4185 25.875 41.307C25.875 41.1954 25.8962 41.0849 25.9374 40.9818C25.9786 40.8787 26.039 40.785 26.1151 40.7061L35.6466 30.8342L26.1151 20.9623C26.0003 20.8435 25.9222 20.692 25.8905 20.5272C25.8588 20.3623 25.875 20.1914 25.9372 20.0361C25.9993 19.8809 26.1045 19.7481 26.2394 19.6548C26.3744 19.5614 26.5331 19.5116 26.6954 19.5117Z" fill="white"/>
</svg>
