<svg width="31" height="31" viewBox="0 0 31 31" fill="none" xmlns="http://www.w3.org/2000/svg">
<path d="M6.23444 13.4161C8.71444 18.29 12.71 22.2683 17.5839 24.7656L21.3728 20.9767C21.8378 20.5117 22.5267 20.3567 23.1294 20.5633C25.0583 21.2006 27.1422 21.545 29.2778 21.545C30.225 21.545 31 22.32 31 23.2672V29.2778C31 30.225 30.225 31 29.2778 31C13.1061 31 0 17.8939 0 1.72222C0 0.775 0.775 0 1.72222 0H7.75C8.69722 0 9.47222 0.775 9.47222 1.72222C9.47222 3.875 9.81667 5.94167 10.4539 7.87056C10.6433 8.47333 10.5056 9.145 10.0233 9.62722L6.23444 13.4161Z" fill="white"/>
</svg>
