<svg width="14" height="14" viewBox="0 0 14 14" fill="none" xmlns="http://www.w3.org/2000/svg">
<g clip-path="url(#clip0_52_483)">
<mask id="mask0_52_483" style="mask-type:luminance" maskUnits="userSpaceOnUse" x="0" y="0" width="14" height="14">
<path d="M14 0H0V14H14V0Z" fill="white"/>
</mask>
<g mask="url(#mask0_52_483)">
<path d="M13.937 11.1589L13.8673 10.9489C13.7023 10.4584 13.1613 9.94675 12.6644 9.81197L10.8251 9.30951C10.3263 9.17381 9.61478 9.35627 9.24983 9.72118L8.58417 10.3869C6.16493 9.73315 4.2679 7.83604 3.61508 5.4173L4.28078 4.7516C4.64572 4.38669 4.82818 3.67612 4.69248 3.17731L4.19093 1.33711C4.0552 0.839227 3.54266 0.298276 3.05307 0.135055L2.84311 0.0644614C2.35256 -0.09876 1.65297 0.0663098 1.28806 0.431218L0.2923 1.42789C0.114409 1.60484 0.000714501 2.11096 0.000714501 2.11281C-0.0341127 5.27425 1.20552 8.32016 3.4418 10.5565C5.67259 12.7872 8.70705 14.0251 11.8593 13.9985C11.8758 13.9985 12.3966 13.8866 12.5745 13.7096L13.5703 12.7139C13.9352 12.349 14.1002 11.6494 13.937 11.1589Z" fill="#FBF7F6"/>
</g>
</g>
<defs>
<clipPath id="clip0_52_483">
<rect width="14" height="14" fill="white"/>
</clipPath>
</defs>
</svg>
