<svg width="60" height="60" viewBox="0 0 60 60" fill="none" xmlns="http://www.w3.org/2000/svg">
<g opacity="0.3">
<circle cx="30" cy="30" r="30" fill="#2967EC"/>
<path d="M34.3046 41.4883C34.1969 41.4883 34.0902 41.4664 33.9906 41.4237C33.8911 41.3811 33.8006 41.3185 33.7244 41.2396L23.6132 30.7668C23.4594 30.6074 23.373 30.3914 23.373 30.1661C23.373 29.9408 23.4594 29.7248 23.6132 29.5654L33.7244 19.0926C33.8006 19.0137 33.891 18.951 33.9905 18.9083C34.09 18.8656 34.1967 18.8436 34.3044 18.8436C34.4122 18.8435 34.5189 18.8655 34.6184 18.9082C34.7179 18.9508 34.8084 19.0134 34.8846 19.0923C34.9608 19.1712 35.0212 19.2648 35.0625 19.3679C35.1037 19.471 35.125 19.5815 35.125 19.693C35.125 19.8046 35.1038 19.9151 35.0626 20.0182C35.0214 20.1213 34.961 20.215 34.8849 20.2939L25.3534 30.1658L34.8849 40.0377C34.9997 40.1565 35.0778 40.308 35.1095 40.4728C35.1412 40.6377 35.125 40.8086 35.0629 40.9639C35.0007 41.1191 34.8955 41.2519 34.7606 41.3452C34.6256 41.4386 34.4669 41.4884 34.3046 41.4883Z" fill="white"/>
</g>
</svg>
