<svg width="23" height="23" viewBox="0 0 23 23" fill="none" xmlns="http://www.w3.org/2000/svg">
<g clip-path="url(#clip0_317_1845)">
<path d="M9.27812 0C4.35933 0 0.371094 3.98827 0.371094 8.90702C0.371094 13.8258 4.35933 17.8141 9.27812 17.8141C11.1695 17.8141 12.9237 17.2241 14.3656 16.2191L21.1014 22.9539C21.1622 23.0147 21.2606 23.0147 21.3183 22.9581L22.5873 21.6891C22.646 21.6304 22.6408 21.5298 22.5831 21.4722L15.9353 14.8244C17.3353 13.2515 18.1851 11.1788 18.1851 8.90699C18.1851 3.98827 14.1969 0 9.27812 0ZM9.27812 16.7662C4.93779 16.7662 1.41897 13.2474 1.41897 8.90702C1.41897 4.56669 4.93775 1.04791 9.27812 1.04791C13.6185 1.04791 17.1372 4.56669 17.1372 8.90702C17.1372 13.2474 13.6184 16.7662 9.27812 16.7662Z" fill="#D1D1D1"/>
</g>
<defs>
<clipPath id="clip0_317_1845">
<rect width="23" height="23" fill="white"/>
</clipPath>
</defs>
</svg>
