<svg width="24" height="24" viewBox="0 0 24 24" fill="none" xmlns="http://www.w3.org/2000/svg">
<path fill-rule="evenodd" clip-rule="evenodd" d="M23.7129 4.28478C22.8488 4.67879 21.9183 4.94513 20.9422 5.06414C21.9388 4.45199 22.7038 3.48114 23.0641 2.32489C22.1309 2.8918 21.0996 3.30419 19.9979 3.52529C19.1199 2.56309 17.8649 1.96216 16.4761 1.96216C13.8131 1.96216 11.6525 4.17994 11.6525 6.91514C11.6525 7.30344 11.6939 7.68034 11.7767 8.04325C7.7666 7.83614 4.21178 5.86631 1.8302 2.86623C1.41475 3.60034 1.17716 4.45199 1.17716 5.359C1.17716 7.07664 2.02902 8.59287 3.3239 9.48149C2.53433 9.45739 1.78868 9.23207 1.1371 8.86363V8.92452C1.1371 11.3251 2.80058 13.3275 5.00944 13.7811C4.605 13.8974 4.17834 13.9555 3.73789 13.9555C3.42735 13.9555 3.12362 13.9257 2.82943 13.8676C3.44371 15.8346 5.22461 17.2674 7.33681 17.3056C5.68564 18.635 3.60394 19.427 1.344 19.427C0.954636 19.427 0.569497 19.4044 0.192627 19.3589C2.32835 20.7619 4.86574 21.5824 7.58946 21.5824C16.4662 21.5824 21.3187 14.0361 21.3187 7.49033C21.3187 7.27493 21.3145 7.05954 21.3062 6.84837C22.2496 6.14976 23.0682 5.27825 23.7129 4.28478Z" fill="white"/>
</svg>
