<svg width="25" height="24" viewBox="0 0 25 24" fill="none" xmlns="http://www.w3.org/2000/svg">
<path fill-rule="evenodd" clip-rule="evenodd" d="M24.4145 4.28478C23.5494 4.67879 22.6179 4.94513 21.6408 5.06414C22.6385 4.45199 23.4043 3.48114 23.765 2.32489C22.8307 2.8918 21.7985 3.30419 20.6955 3.52529C19.8167 2.56309 18.5604 1.96216 17.1701 1.96216C14.5043 1.96216 12.3415 4.17994 12.3415 6.91514C12.3415 7.30344 12.3829 7.68034 12.4658 8.04325C8.4515 7.83614 4.89297 5.86631 2.50891 2.86623C2.09302 3.60034 1.85519 4.45199 1.85519 5.359C1.85519 7.07664 2.70794 8.59287 4.00417 9.48149C3.21378 9.45739 2.46734 9.23207 1.81509 8.86363V8.92452C1.81509 11.3251 3.48031 13.3275 5.69146 13.7811C5.28661 13.8974 4.8595 13.9555 4.41859 13.9555C4.10773 13.9555 3.80367 13.9257 3.50918 13.8676C4.1241 15.8346 5.90686 17.2674 8.02126 17.3056C6.36837 18.635 4.2845 19.427 2.0222 19.427C1.63243 19.427 1.24689 19.4044 0.869629 19.3589C3.00758 20.7619 5.54762 21.5824 8.27418 21.5824C17.1602 21.5824 22.0177 14.0361 22.0177 7.49033C22.0177 7.27493 22.0135 7.05954 22.0052 6.84837C22.9496 6.14976 23.769 5.27825 24.4145 4.28478Z" fill="#363636"/>
</svg>
