<svg width="42" height="44" viewBox="0 0 42 44" fill="none" xmlns="http://www.w3.org/2000/svg">
<path d="M16.9424 17.9422C18.0623 17.9422 18.9713 17.0346 18.9713 15.9132C18.9713 14.7933 18.0623 13.8843 16.9424 13.8843C15.8224 13.8843 14.9134 14.7933 14.9134 15.9132C14.9134 17.0345 15.8224 17.9422 16.9424 17.9422ZM25.058 17.9422C26.178 17.9422 27.0869 17.0346 27.0869 15.9132C27.0869 14.7933 26.1779 13.8843 25.058 13.8843C23.9381 13.8843 23.0291 14.7933 23.0291 15.9132C23.0291 17.0345 23.9381 17.9422 25.058 17.9422ZM13.0684 31.1125C14.1207 31.2829 16.5108 31.4682 17.6186 31.4682C27.3304 31.4682 33.85 24.2412 33.85 15.7441C33.85 7.24696 25.7032 0.358154 17.6186 0.358154C7.89337 0.358154 0.034668 7.24703 0.034668 15.7441C0.034668 20.6662 1.91074 24.8458 5.44513 27.8554V35.526L13.0684 31.1125ZM2.7399 15.9132C2.7399 8.81601 9.16883 3.06339 17.6186 3.06339C24.3452 3.06339 31.1447 8.81601 31.1447 15.9132C31.1447 23.0103 25.8357 28.763 17.6186 28.763C16.4108 28.763 13.8908 28.625 12.7668 28.391L8.15036 31.4682V26.6746C4.85132 23.9978 2.7399 20.4214 2.7399 15.9132ZM36.4862 12.7183C36.5119 13.1065 36.5552 13.4907 36.5552 13.8843C36.5552 14.7446 36.4727 15.5872 36.3509 16.4192C38.1716 18.5508 39.2604 21.1763 39.2604 24.0289C39.2604 28.5372 36.5661 32.4976 32.4974 34.7903V39.584L27.8809 36.5068C26.7569 36.7407 25.5896 36.8787 24.3817 36.8787C20.8785 36.8787 19.0173 35.8264 16.4743 34.0761C15.7372 34.1357 14.9919 34.1736 14.2371 34.1736C13.6988 34.1736 13.1713 34.1343 12.641 34.1046C15.8602 37.2534 19.1728 39.2458 24.3817 39.2458C25.4895 39.2458 26.5702 39.1457 27.6212 38.9739L35.2026 43.6418V35.9697C39.3132 33.1536 41.9656 28.782 41.9656 23.8584C41.9656 19.4706 39.8555 15.5223 36.4862 12.7183ZM8.82667 17.9422C9.94661 17.9422 10.8556 17.0346 10.8556 15.9132C10.8556 14.7933 9.94661 13.8843 8.82667 13.8843C7.70666 13.8843 6.79775 14.7933 6.79775 15.9132C6.79775 17.0345 7.70666 17.9422 8.82667 17.9422Z" fill="white"/>
</svg>
