<svg width="34" height="24" viewBox="0 0 34 24" fill="none" xmlns="http://www.w3.org/2000/svg">
<path fill-rule="evenodd" clip-rule="evenodd" d="M33.4039 5.07863C33.4039 5.07863 33.0829 2.77186 32.0994 1.75624C30.8513 0.422505 29.4524 0.416273 28.8114 0.338887C24.2188 9.28701e-08 17.33 0 17.33 0H17.3157C17.3157 0 10.4268 9.28701e-08 5.8343 0.338887C5.19229 0.416273 3.79443 0.422505 2.54527 1.75624C1.56174 2.77212 1.24176 5.07863 1.24176 5.07863C1.24176 5.07863 0.913574 7.78817 0.913574 10.4964V13.0364C0.913574 15.7457 1.24176 18.4542 1.24176 18.4542C1.24176 18.4542 1.56174 20.7609 2.54527 21.7765C3.79443 23.1103 5.43433 23.0685 6.16454 23.2077C8.79002 23.465 17.3228 23.5445 17.3228 23.5445C17.3228 23.5445 24.2188 23.5341 28.8114 23.1952C29.4524 23.1168 30.8513 23.1105 32.0994 21.7768C33.0829 20.7609 33.4039 18.4544 33.4039 18.4544C33.4039 18.4544 33.7321 15.7459 33.7321 13.0364V10.4964C33.7321 7.78817 33.4039 5.07863 33.4039 5.07863ZM13.9343 16.1141L13.9333 6.70866L22.8005 11.4276L13.9343 16.1141Z" fill="white"/>
</svg>
