<svg width="34" height="24" viewBox="0 0 34 24" fill="none" xmlns="http://www.w3.org/2000/svg">
<path fill-rule="evenodd" clip-rule="evenodd" d="M33.1561 5.07863C33.1561 5.07863 32.8347 2.77186 31.8502 1.75624C30.6007 0.422505 29.2004 0.416273 28.5587 0.338887C23.9614 9.28701e-08 17.0654 0 17.0654 0H17.051C17.051 0 10.155 9.28701e-08 5.55769 0.338887C4.91501 0.416273 3.51569 0.422505 2.26523 1.75624C1.28068 2.77212 0.960363 5.07863 0.960363 5.07863C0.960363 5.07863 0.631836 7.78817 0.631836 10.4964V13.0364C0.631836 15.7457 0.960363 18.4542 0.960363 18.4542C0.960363 18.4542 1.28068 20.7609 2.26523 21.7765C3.51569 23.1103 5.1573 23.0685 5.88828 23.2077C8.5165 23.465 17.0582 23.5445 17.0582 23.5445C17.0582 23.5445 23.9614 23.5341 28.5587 23.1952C29.2004 23.1168 30.6007 23.1105 31.8502 21.7768C32.8347 20.7609 33.1561 18.4544 33.1561 18.4544C33.1561 18.4544 33.4846 15.7459 33.4846 13.0364V10.4964C33.4846 7.78817 33.1561 5.07863 33.1561 5.07863ZM13.6662 16.1141L13.6651 6.70866L22.5415 11.4276L13.6662 16.1141Z" fill="#363636"/>
</svg>
